<svg xmlns="http://www.w3.org/2000/svg" width="1200" height="760" viewBox="0 0 1200 760">
  <rect width="1200" height="760" fill="#fff"/>
  <text x="48" y="66" font-family="Inter, Arial" font-size="28" fill="#111">Smart Bundles decision flow</text>
  <text x="48" y="100" font-family="Inter, Arial" font-size="14" fill="#777">Wireframe artifact · simplified from product strategy flow</text>
  <g font-family="Inter, Arial" fill="#111" stroke="#d8d6d1">
    <rect x="60" y="150" width="280" height="500" fill="#f8f7f4"/>
    <rect x="90" y="190" width="220" height="26" fill="#e9e6df"/>
    <rect x="90" y="238" width="220" height="88" fill="#fff"/>
    <text x="110" y="274" font-size="15">Choose bundle theme</text>
    <rect x="90" y="352" width="220" height="72" fill="#fff"/>
    <text x="110" y="392" font-size="15">Review allocation</text>
    <rect x="90" y="452" width="220" height="58" fill="#111"/>
    <text x="128" y="488" font-size="15" fill="#fff">Continue</text>

    <rect x="460" y="150" width="280" height="500" fill="#f8f7f4"/>
    <rect x="490" y="190" width="220" height="26" fill="#e9e6df"/>
    <rect x="490" y="242" width="220" height="150" fill="#fff"/>
    <text x="510" y="282" font-size="15">Investment idea</text>
    <line x1="510" y1="310" x2="690" y2="310"/>
    <line x1="510" y1="336" x2="650" y2="336"/>
    <rect x="490" y="428" width="220" height="82" fill="#fff"/>
    <text x="510" y="475" font-size="15">Risk framing</text>

    <rect x="860" y="150" width="280" height="500" fill="#f8f7f4"/>
    <rect x="890" y="190" width="220" height="26" fill="#e9e6df"/>
    <rect x="890" y="248" width="220" height="210" fill="#fff"/>
    <text x="910" y="288" font-size="15">Confirm purchase</text>
    <circle cx="1000" cy="360" r="50" fill="#f8f7f4"/>
    <rect x="890" y="498" width="220" height="58" fill="#111"/>
    <text x="952" y="534" font-size="15" fill="#fff">Buy bundle</text>
  </g>
  <g stroke="#111" stroke-width="1.5" fill="none" marker-end="url(#arrow)">
    <path d="M360 400 H440"/>
    <path d="M760 400 H840"/>
  </g>
  <defs><marker id="arrow" markerWidth="8" markerHeight="8" refX="6" refY="3" orient="auto"><path d="M0,0 L0,6 L6,3 z" fill="#111"/></marker></defs>
</svg>
