<svg xmlns="http://www.w3.org/2000/svg" width="1200" height="760" viewBox="0 0 1200 760">
  <rect width="1200" height="760" fill="#fff"/>
  <text x="48" y="66" font-family="Inter, Arial" font-size="28" fill="#111">Before and after homepage structure</text>
  <text x="48" y="100" font-family="Inter, Arial" font-size="14" fill="#777">Before / after artifact · moving users faster toward first play</text>
  <g font-family="Inter, Arial" fill="#111" stroke="#d8d6d1">
    <text x="210" y="158" font-size="18">Before</text><text x="820" y="158" font-size="18">After</text>
    <rect x="130" y="190" width="360" height="470" fill="#f8f7f4"/>
    <rect x="170" y="230" width="280" height="62" fill="#fff"/><text x="195" y="268" font-size="15">Heavy landing content</text>
    <rect x="170" y="320" width="125" height="105" fill="#fff"/><rect x="325" y="320" width="125" height="105" fill="#fff"/>
    <rect x="170" y="455" width="280" height="44" fill="#fff"/><rect x="170" y="525" width="280" height="44" fill="#fff"/>
    <text x="195" y="552" font-size="15">Search buried below fold</text>
    <rect x="710" y="190" width="360" height="470" fill="#f8f7f4"/>
    <rect x="750" y="230" width="280" height="72" fill="#111"/><text x="820" y="273" font-size="15" fill="#fff">Play now</text>
    <rect x="750" y="330" width="280" height="58" fill="#fff"/><text x="775" y="365" font-size="15">Recommended for you</text>
    <rect x="750" y="420" width="82" height="100" fill="#fff"/><rect x="850" y="420" width="82" height="100" fill="#fff"/><rect x="950" y="420" width="82" height="100" fill="#fff"/>
    <rect x="750" y="550" width="280" height="44" fill="#fff"/><text x="775" y="577" font-size="15">Repeat session trigger</text>
  </g>
  <path d="M540 425 H655" stroke="#111" stroke-width="2" marker-end="url(#arrow)"/>
  <defs><marker id="arrow" markerWidth="8" markerHeight="8" refX="6" refY="3" orient="auto"><path d="M0,0 L0,6 L6,3 z" fill="#111"/></marker></defs>
</svg>
